<svg width="76" height="43" viewBox="0 0 76 43" fill="none" xmlns="http://www.w3.org/2000/svg">
<path d="M0 21.0488C0 9.45085 9.40202 0.0488281 21 0.0488281H55C66.598 0.0488281 76 9.45085 76 21.0488C76 32.6468 66.598 42.0488 55 42.0488H21C9.40202 42.0488 0 32.6468 0 21.0488Z" fill="white"/>
<path fill-rule="evenodd" clip-rule="evenodd" d="M26 21.0488C26 20.4965 26.4477 20.0488 27 20.0488L49 20.0488C49.5523 20.0488 50 20.4965 50 21.0488C50 21.6011 49.5523 22.0488 49 22.0488L27 22.0488C26.4477 22.0488 26 21.6011 26 21.0488Z" fill="#002547"/>
<path fill-rule="evenodd" clip-rule="evenodd" d="M41.2929 13.3417C41.6834 12.9512 42.3166 12.9512 42.7071 13.3417L49.7071 20.3417C50.0976 20.7322 50.0976 21.3654 49.7071 21.7559L42.7071 28.7559C42.3166 29.1465 41.6834 29.1465 41.2929 28.7559C40.9024 28.3654 40.9024 27.7322 41.2929 27.3417L47.5858 21.0488L41.2929 14.7559C40.9024 14.3654 40.9024 13.7322 41.2929 13.3417Z" fill="#002547"/>
</svg>
