<svg width="111" height="43" viewBox="0 0 111 43" fill="none" xmlns="http://www.w3.org/2000/svg">
<path fill-rule="evenodd" clip-rule="evenodd" d="M42.7381 21.6044L42.7383 21.5078C42.7383 9.90983 33.3363 0.507812 21.7383 0.507812C10.9139 0.507812 2.00237 8.69735 0.861645 19.2183L12.5282 24.922C13.0999 24.1262 14.0336 23.6078 15.0883 23.6078C15.981 23.6078 16.787 23.9792 17.3602 24.5758L26.6385 16.9213C26.6581 15.1984 28.0608 13.8078 29.7883 13.8078C31.3955 13.8078 32.7215 15.0115 32.9142 16.5665L42.7381 21.6044ZM18.224 26.456L27.3377 18.9372C27.9152 19.6512 28.7984 20.1078 29.7883 20.1078C30.9295 20.1078 31.929 19.5009 32.4816 18.5923L42.6158 23.7893C41.4787 34.3141 32.5653 42.5078 21.7383 42.5078C10.1403 42.5078 0.738281 33.1058 0.738281 21.5078C0.738281 21.4667 0.7384 21.4255 0.738636 21.3844L11.9399 26.8606C11.9942 28.5527 13.383 29.9078 15.0883 29.9078C16.828 29.9078 18.2383 28.4975 18.2383 26.7578C18.2383 26.656 18.2334 26.5553 18.224 26.456Z" fill="white"/>
<path d="M65.9683 21.6318C66.8336 21.7931 67.5449 22.2258 68.1023 22.9298C68.6596 23.6338 68.9383 24.4405 68.9383 25.3498C68.9383 26.1711 68.7329 26.8971 68.3223 27.5278C67.9263 28.1438 67.3469 28.6278 66.5843 28.9798C65.8216 29.3318 64.9196 29.5078 63.8783 29.5078H57.2563V14.1518H63.5923C64.6336 14.1518 65.5283 14.3205 66.2763 14.6578C67.0389 14.9951 67.6109 15.4645 67.9923 16.0658C68.3883 16.6671 68.5863 17.3491 68.5863 18.1118C68.5863 19.0065 68.3443 19.7545 67.8603 20.3558C67.3909 20.9571 66.7603 21.3825 65.9683 21.6318ZM60.3363 20.4878H63.1523C63.8856 20.4878 64.4503 20.3265 64.8463 20.0038C65.2423 19.6665 65.4403 19.1898 65.4403 18.5738C65.4403 17.9578 65.2423 17.4811 64.8463 17.1438C64.4503 16.8065 63.8856 16.6378 63.1523 16.6378H60.3363V20.4878ZM63.4383 26.9998C64.1863 26.9998 64.7656 26.8238 65.1763 26.4718C65.6016 26.1198 65.8143 25.6211 65.8143 24.9758C65.8143 24.3158 65.5943 23.8025 65.1543 23.4358C64.7143 23.0545 64.1203 22.8638 63.3723 22.8638H60.3363V26.9998H63.4383ZM70.601 23.3698C70.601 22.1378 70.843 21.0451 71.327 20.0918C71.8257 19.1385 72.493 18.4051 73.329 17.8918C74.1797 17.3785 75.1257 17.1218 76.167 17.1218C77.0763 17.1218 77.8683 17.3051 78.543 17.6718C79.2323 18.0385 79.7823 18.5005 80.193 19.0578V17.3198H83.295V29.5078H80.193V27.7258C79.797 28.2978 79.247 28.7745 78.543 29.1558C77.8537 29.5225 77.0543 29.7058 76.145 29.7058C75.1183 29.7058 74.1797 29.4418 73.329 28.9138C72.493 28.3858 71.8257 27.6451 71.327 26.6918C70.843 25.7238 70.601 24.6165 70.601 23.3698ZM80.193 23.4138C80.193 22.6658 80.0463 22.0278 79.753 21.4998C79.4597 20.9571 79.0637 20.5465 78.565 20.2678C78.0663 19.9745 77.531 19.8278 76.959 19.8278C76.387 19.8278 75.859 19.9671 75.375 20.2458C74.891 20.5245 74.495 20.9351 74.187 21.4778C73.8937 22.0058 73.747 22.6365 73.747 23.3698C73.747 24.1031 73.8937 24.7485 74.187 25.3058C74.495 25.8485 74.891 26.2665 75.375 26.5598C75.8737 26.8531 76.4017 26.9998 76.959 26.9998C77.531 26.9998 78.0663 26.8605 78.565 26.5818C79.0637 26.2885 79.4597 25.8778 79.753 25.3498C80.0463 24.8071 80.193 24.1618 80.193 23.4138ZM90.9672 29.7058C89.9698 29.7058 89.0752 29.5298 88.2832 29.1778C87.4912 28.8111 86.8605 28.3198 86.3912 27.7038C85.9365 27.0878 85.6872 26.4058 85.6432 25.6578H88.7452C88.8038 26.1271 89.0312 26.5158 89.4272 26.8238C89.8378 27.1318 90.3438 27.2858 90.9452 27.2858C91.5318 27.2858 91.9865 27.1685 92.3092 26.9338C92.6465 26.6991 92.8152 26.3985 92.8152 26.0318C92.8152 25.6358 92.6098 25.3425 92.1992 25.1518C91.8032 24.9465 91.1652 24.7265 90.2852 24.4918C89.3758 24.2718 88.6278 24.0445 88.0412 23.8098C87.4692 23.5751 86.9705 23.2158 86.5452 22.7318C86.1345 22.2478 85.9292 21.5951 85.9292 20.7738C85.9292 20.0991 86.1198 19.4831 86.5012 18.9258C86.8972 18.3685 87.4545 17.9285 88.1732 17.6058C88.9065 17.2831 89.7645 17.1218 90.7472 17.1218C92.1992 17.1218 93.3578 17.4885 94.2232 18.2218C95.0885 18.9405 95.5652 19.9158 95.6532 21.1478H92.7052C92.6612 20.6638 92.4558 20.2825 92.0892 20.0038C91.7372 19.7105 91.2605 19.5638 90.6592 19.5638C90.1018 19.5638 89.6692 19.6665 89.3612 19.8718C89.0678 20.0771 88.9212 20.3631 88.9212 20.7298C88.9212 21.1405 89.1265 21.4558 89.5372 21.6758C89.9478 21.8811 90.5858 22.0938 91.4512 22.3138C92.3312 22.5338 93.0572 22.7611 93.6292 22.9958C94.2012 23.2305 94.6925 23.5971 95.1032 24.0958C95.5285 24.5798 95.7485 25.2251 95.7632 26.0318C95.7632 26.7358 95.5652 27.3665 95.1692 27.9238C94.7878 28.4811 94.2305 28.9211 93.4972 29.2438C92.7785 29.5518 91.9352 29.7058 90.9672 29.7058ZM109.621 23.1498C109.621 23.5898 109.592 23.9858 109.533 24.3378H100.623C100.697 25.2178 101.005 25.9071 101.547 26.4058C102.09 26.9045 102.757 27.1538 103.549 27.1538C104.693 27.1538 105.507 26.6625 105.991 25.6798H109.313C108.961 26.8531 108.287 27.8211 107.289 28.5838C106.292 29.3318 105.067 29.7058 103.615 29.7058C102.442 29.7058 101.386 29.4491 100.447 28.9358C99.5234 28.4078 98.7974 27.6671 98.2694 26.7138C97.7561 25.7605 97.4994 24.6605 97.4994 23.4138C97.4994 22.1525 97.7561 21.0451 98.2694 20.0918C98.7828 19.1385 99.5014 18.4051 100.425 17.8918C101.349 17.3785 102.413 17.1218 103.615 17.1218C104.774 17.1218 105.808 17.3711 106.717 17.8698C107.641 18.3685 108.353 19.0798 108.851 20.0038C109.365 20.9131 109.621 21.9618 109.621 23.1498ZM106.431 22.2698C106.417 21.4778 106.131 20.8471 105.573 20.3778C105.016 19.8938 104.334 19.6518 103.527 19.6518C102.765 19.6518 102.119 19.8865 101.591 20.3558C101.078 20.8105 100.763 21.4485 100.645 22.2698H106.431Z" fill="white"/>
</svg>
